<?xml version="1.0" encoding="utf-8"?>
<svg version="1.1" xmlns:xlink="http://www.w3.org/1999/xlink" width="165px" height="165px" xmlns="http://www.w3.org/2000/svg">
  <g transform="matrix(1 0 0 1 -75 -59 )">
    <path d="M 75 59  L 240 59  L 240 224  L 75 224  L 75 59  " fill-rule="nonzero" fill="#cccccc" stroke="none" />
    <path d="M 87 71  L 228 71  L 228 212  L 87 212  L 87 71  " fill-rule="nonzero" fill="#ffffff" stroke="none" />
    <path d="M 173.175 108.5  C 166.245 108.5  160.8 103.055  160.8 96.125  C 160.8 89.195  166.245 83.75  173.175 83.75  C 180.105 83.75  185.55 89.195  185.55 96.125  C 185.55 103.055  180.105 108.5  173.175 108.5  " fill-rule="nonzero" fill="#cccccc" stroke="none" />
    <path d="M 91 208  L 91 134.85  L 124.25 101.6  L 170.8 128.2  L 197.4 121.55  L 224 128.2  L 224 208  L 91 208  " fill-rule="nonzero" fill="#169bd5" stroke="none" />
  </g>
</svg>