<?xml version="1.0" encoding="utf-8"?>
<svg version="1.1" xmlns:xlink="http://www.w3.org/1999/xlink" width="26px" height="25px" xmlns="http://www.w3.org/2000/svg">
  <g transform="matrix(1 0 0 1 -810 -170 )">
    <path d="M 18.3828125 15.625  C 18.3828125 15.7660590277778  18.3344494047619 15.8908420138889  18.2377232142857 15.9993489583333  L 16.1194196428571 18.3756510416667  C 16.022693452381 18.4841579861111  15.9114583333333 18.5384114583333  15.7857142857143 18.5384114583333  C 15.6599702380952 18.5384114583333  15.5487351190476 18.4841579861111  15.4520089285714 18.3756510416667  L 13 15.625  L 10.5479910714286 18.3756510416667  C 10.4512648809524 18.4841579861111  10.3400297619048 18.5384114583333  10.2142857142857 18.5384114583333  C 10.0885416666667 18.5384114583333  9.97730654761905 18.4841579861111  9.88058035714286 18.3756510416667  L 7.76227678571429 15.9993489583333  C 7.6655505952381 15.8908420138889  7.6171875 15.7660590277778  7.6171875 15.625  C 7.6171875 15.4839409722222  7.6655505952381 15.3591579861111  7.76227678571429 15.2506510416667  L 10.2142857142857 12.5  L 7.76227678571429 9.74934895833333  C 7.6655505952381 9.64084201388889  7.6171875 9.51605902777778  7.6171875 9.375  C 7.6171875 9.23394097222222  7.6655505952381 9.10915798611111  7.76227678571429 9.00065104166667  L 9.88058035714286 6.62434895833333  C 9.97730654761905 6.51584201388889  10.0885416666667 6.46158854166667  10.2142857142857 6.46158854166667  C 10.3400297619048 6.46158854166667  10.4512648809524 6.51584201388889  10.5479910714286 6.62434895833333  L 13 9.375  L 15.4520089285714 6.62434895833333  C 15.5487351190476 6.51584201388889  15.6599702380952 6.46158854166667  15.7857142857143 6.46158854166667  C 15.9114583333333 6.46158854166667  16.022693452381 6.51584201388889  16.1194196428571 6.62434895833333  L 18.2377232142857 9.00065104166667  C 18.3344494047619 9.10915798611111  18.3828125 9.23394097222222  18.3828125 9.375  C 18.3828125 9.51605902777778  18.3344494047619 9.64084201388889  18.2377232142857 9.74934895833333  L 15.7857142857143 12.5  L 18.2377232142857 15.2506510416667  C 18.3344494047619 15.3591579861111  18.3828125 15.4839409722222  18.3828125 15.625  Z M 4 4.16666666666667  L 4 20.8333333333333  L 22 20.8333333333333  L 22 4.16666666666667  L 4 4.16666666666667  Z M 25.3180803571429 0.764973958333334  C 25.772693452381 1.27495659722222  26 1.88802083333333  26 2.60416666666667  L 26 22.3958333333333  C 26 23.1119791666667  25.772693452381 23.7250434027778  25.3180803571429 24.2350260416667  C 24.8634672619048 24.7450086805556  24.3169642857143 25  23.6785714285714 25  L 2.32142857142857 25  C 1.68303571428571 25  1.13653273809524 24.7450086805556  0.681919642857143 24.2350260416667  C 0.227306547619048 23.7250434027778  0 23.1119791666667  0 22.3958333333333  L 0 2.60416666666667  C 0 1.88802083333333  0.227306547619048 1.27495659722222  0.681919642857143 0.764973958333334  C 1.13653273809524 0.254991319444442  1.68303571428571 0  2.32142857142857 0  L 23.6785714285714 0  C 24.3169642857143 0  24.8634672619048 0.254991319444442  25.3180803571429 0.764973958333334  Z " fill-rule="nonzero" fill="#0d8628" stroke="none" transform="matrix(1 0 0 1 810 170 )" />
  </g>
</svg>