<?xml version="1.0" encoding="utf-8"?>
<svg version="1.1" xmlns:xlink="http://www.w3.org/1999/xlink" width="30px" height="36px" xmlns="http://www.w3.org/2000/svg">
  <g transform="matrix(1 0 0 1 -28 -26 )">
    <path d="M 17.20703125 33.9890625  C 17.8190104166667 33.5484375  18.125 33.01875  18.125 32.4  C 18.125 31.78125  17.8190104166667 31.2515625  17.20703125 30.8109375  C 16.5950520833333 30.3703125  15.859375 30.15  15 30.15  C 14.140625 30.15  13.4049479166667 30.3703125  12.79296875 30.8109375  C 12.1809895833333 31.2515625  11.875 31.78125  11.875 32.4  C 11.875 33.01875  12.1809895833333 33.5484375  12.79296875 33.9890625  C 13.4049479166667 34.4296875  14.140625 34.65  15 34.65  C 15.859375 34.65  16.5950520833333 34.4296875  17.20703125 33.9890625  Z M 25.87890625 28.5328125  C 26.1263020833333 28.3546875  26.25 28.14375  26 27.9  L 26 8.1  C 26.25 7.85625  26.1263020833333 7.6453125  25.87890625 7.4671875  C 25.6315104166667 7.2890625  25.3385416666667 7.2  25 7.2  L 5 7.2  C 4.66145833333333 7.2  4.36848958333333 7.2890625  4.12109375 7.4671875  C 3.87369791666667 7.6453125  3.75 7.85625  4 8.1  L 4 27.9  C 3.75 28.14375  3.87369791666667 28.3546875  4.12109375 28.5328125  C 4.36848958333333 28.7109375  4.66145833333333 28.8  5 28.8  L 25 28.8  C 25.3385416666667 28.8  25.6315104166667 28.7109375  25.87890625 28.5328125  Z M 18.125 4.5  C 18.5416666666667 4.5  18.75 4.35  18.75 4.05  C 18.75 3.75  18.5416666666667 3.6  18.125 3.6  L 11.875 3.6  C 11.4583333333333 3.6  11.25 3.75  11.25 4.05  C 11.25 4.35  11.4583333333333 4.5  11.875 4.5  L 18.125 4.5  Z M 28.515625 1.06875  C 29.5052083333333 1.78125  30 2.625  30 3.6  L 30 32.4  C 30 33.375  29.5052083333333 34.21875  28.515625 34.93125  C 27.5260416666667 35.64375  26.3541666666667 36  25 36  L 5 36  C 3.64583333333333 36  2.47395833333333 35.64375  1.484375 34.93125  C 0.494791666666667 34.21875  0 33.375  0 32.4  L 0 3.6  C 0 2.625  0.494791666666667 1.78125  1.484375 1.06875  C 2.47395833333333 0.356249999999996  3.64583333333333 0  5 0  L 25 0  C 26.3541666666667 0  27.5260416666667 0.356249999999996  28.515625 1.06875  Z " fill-rule="nonzero" fill="#62c678" stroke="none" transform="matrix(1 0 0 1 28 26 )" />
  </g>
</svg>