<?xml version="1.0" encoding="utf-8"?>
<svg version="1.1" xmlns:xlink="http://www.w3.org/1999/xlink" width="384px" height="315px" xmlns="http://www.w3.org/2000/svg">
  <g transform="matrix(1 0 0 1 -20 -247 )">
    <path d="M 20 247  L 404 247  L 404 562  L 20 562  L 20 247  " fill-rule="nonzero" fill="#cccccc" stroke="none" />
    <path d="M 42 269  L 382 269  L 382 540  L 42 540  L 42 269  " fill-rule="nonzero" fill="#ffffff" stroke="none" />
    <path d="M 243.305 341.5  C 230.075 341.5  219.68 331.105  219.68 317.875  C 219.68 304.645  230.075 294.25  243.305 294.25  C 256.535 294.25  266.93 304.645  266.93 317.875  C 266.93 331.105  256.535 341.5  243.305 341.5  " fill-rule="nonzero" fill="#cccccc" stroke="none" />
    <path d="M 50 532  L 50 391.75  L 131 328  L 244.4 406.4921875  L 309.2 366.25  L 374 406.4921875  L 374 532  L 50 532  " fill-rule="nonzero" fill="#169bd5" stroke="none" />
  </g>
</svg>